<svg xmlns="http://www.w3.org/2000/svg" width="100%" viewBox="0 0 1920 1419.785">
  <g id="Grupo_286" data-name="Grupo 286" transform="translate(12418 15049)">
    <g id="Caminho_50" data-name="Caminho 50" transform="translate(-12418 -15049)" fill="#a1c181">
      <path d="M 1919.5 1419.28515625 L 0.5 1419.28515625 L 0.5 0.4999590814113617 L 1919.5 0.4999590814113617 L 1919.5 1419.28515625 Z" stroke="none"/>
      <path d="M 1 1 L 1 1418.78515625 L 1919 1418.78515625 L 1919 1 L 1 1 M 0 0 L 1920 0 L 1920 1419.78515625 L 0 1419.78515625 L 0 0 Z" stroke="none" fill="#707070"/>
    </g>
    <path d="M4.682,382.251,3.711,390.4A26.77,26.77,0,0,0,27.5,419.982L50.3,422.6a8.318,8.318,0,0,0,9.261-7.195l.97-8.149a26.768,26.768,0,0,0-23.79-29.582l-22.8-2.623A8.315,8.315,0,0,0,4.682,382.251Z" transform="translate(-12225.561 -14600.684)" fill="#accb8d"/>
    <path d="M5.145,385.15l-1.36,11.4c-2.438,20.472,12.471,39.011,33.3,41.408L69,441.634a11.643,11.643,0,0,0,12.963-10.071l1.358-11.406c2.439-20.472-12.471-39.011-33.3-41.406l-31.912-3.672A11.639,11.639,0,0,0,5.145,385.15Z" transform="translate(-10633.375 -15290.684)" fill="#accb8d"/>
    <path d="M5.145,385.15l-1.36,11.4c-2.438,20.472,12.471,39.011,33.3,41.408L69,441.634a11.643,11.643,0,0,0,12.963-10.071l1.358-11.406c2.439-20.472-12.471-39.011-33.3-41.406l-31.912-3.672A11.639,11.639,0,0,0,5.145,385.15Z" transform="translate(-10871.375 -14823.684)" fill="#accb8d"/>
    <path d="M5.145,385.15l-1.36,11.4c-2.438,20.472,12.471,39.011,33.3,41.408L69,441.634a11.643,11.643,0,0,0,12.963-10.071l1.358-11.406c2.439-20.472-12.471-39.011-33.3-41.406l-31.912-3.672A11.639,11.639,0,0,0,5.145,385.15Z" transform="translate(-11795.375 -14291.684)" fill="#accb8d"/>
    <path d="M4.682,382.251,3.711,390.4A26.77,26.77,0,0,0,27.5,419.982L50.3,422.6a8.318,8.318,0,0,0,9.261-7.195l.97-8.149a26.768,26.768,0,0,0-23.79-29.582l-22.8-2.623A8.315,8.315,0,0,0,4.682,382.251Z" transform="translate(-10635.561 -14600.684)" fill="#accb8d"/>
    <path d="M4.682,382.251,3.711,390.4A26.77,26.77,0,0,0,27.5,419.982L50.3,422.6a8.318,8.318,0,0,0,9.261-7.195l.97-8.149a26.768,26.768,0,0,0-23.79-29.582l-22.8-2.623A8.315,8.315,0,0,0,4.682,382.251Z" transform="translate(-12253.615 -14528.21)" fill="#accb8d"/>
    <path d="M5.145,385.15l-1.36,11.4c-2.438,20.472,12.471,39.011,33.3,41.408L69,441.634a11.643,11.643,0,0,0,12.963-10.071l1.358-11.406c2.439-20.472-12.471-39.011-33.3-41.406l-31.912-3.672A11.639,11.639,0,0,0,5.145,385.15Z" transform="translate(-10910.645 -14722.239)" fill="#accb8d"/>
    <path d="M5.145,385.15l-1.36,11.4c-2.438,20.472,12.471,39.011,33.3,41.408L69,441.634a11.643,11.643,0,0,0,12.963-10.071l1.358-11.406c2.439-20.472-12.471-39.011-33.3-41.406l-31.912-3.672A11.639,11.639,0,0,0,5.145,385.15Z" transform="translate(-11834.645 -14190.239)" fill="#accb8d"/>
    <path d="M4.682,382.251,3.711,390.4A26.77,26.77,0,0,0,27.5,419.982L50.3,422.6a8.318,8.318,0,0,0,9.261-7.195l.97-8.149a26.768,26.768,0,0,0-23.79-29.582l-22.8-2.623A8.315,8.315,0,0,0,4.682,382.251Z" transform="translate(-10663.615 -14528.21)" fill="#accb8d"/>
    <path d="M4.682,382.251,3.711,390.4A26.77,26.77,0,0,0,27.5,419.982L50.3,422.6a8.318,8.318,0,0,0,9.261-7.195l.97-8.149a26.768,26.768,0,0,0-23.79-29.582l-22.8-2.623A8.315,8.315,0,0,0,4.682,382.251Z" transform="translate(-12125.032 -14620.556)" fill="#accb8d"/>
    <path d="M4.682,382.251,3.711,390.4A26.77,26.77,0,0,0,27.5,419.982L50.3,422.6a8.318,8.318,0,0,0,9.261-7.195l.97-8.149a26.768,26.768,0,0,0-23.79-29.582l-22.8-2.623A8.315,8.315,0,0,0,4.682,382.251Z" transform="translate(-12326.089 -14586.656)" fill="#accb8d"/>
    <path d="M5.145,385.15l-1.36,11.4c-2.438,20.472,12.471,39.011,33.3,41.408L69,441.634a11.643,11.643,0,0,0,12.963-10.071l1.358-11.406c2.439-20.472-12.471-39.011-33.3-41.406l-31.912-3.672A11.639,11.639,0,0,0,5.145,385.15Z" transform="translate(-11012.089 -14804.049)" fill="#accb8d"/>
    <path d="M5.145,385.15l-1.36,11.4c-2.438,20.472,12.471,39.011,33.3,41.408L69,441.634a11.643,11.643,0,0,0,12.963-10.071l1.358-11.406c2.439-20.472-12.471-39.011-33.3-41.406l-31.912-3.672A11.639,11.639,0,0,0,5.145,385.15Z" transform="translate(-11936.089 -14272.049)" fill="#accb8d"/>
    <path d="M4.682,382.251,3.711,390.4A26.77,26.77,0,0,0,27.5,419.982L50.3,422.6a8.318,8.318,0,0,0,9.261-7.195l.97-8.149a26.768,26.768,0,0,0-23.79-29.582l-22.8-2.623A8.315,8.315,0,0,0,4.682,382.251Z" transform="translate(-12197.506 -14679.002)" fill="#accb8d"/>
    <path d="M4.682,382.251,3.711,390.4A26.77,26.77,0,0,0,27.5,419.982L50.3,422.6a8.318,8.318,0,0,0,9.261-7.195l.97-8.149a26.768,26.768,0,0,0-23.79-29.582l-22.8-2.623A8.315,8.315,0,0,0,4.682,382.251Z" transform="translate(-12268.838 -14744.449)" fill="#accb8d"/>
    <path d="M11.922,427.595l-7.046,59.1C-7.754,592.771,69.5,688.832,177.427,701.254L342.788,720.28C376,724.1,406.069,700.733,409.959,668.1l7.038-59.1c12.638-106.081-64.62-202.143-172.55-214.556L79.085,375.409C45.878,371.586,15.8,394.949,11.922,427.595Z" transform="translate(-11755.089 -15290.449)" fill="#91b171"/>
    <path d="M11.922,427.595l-7.046,59.1C-7.754,592.771,69.5,688.832,177.427,701.254L342.788,720.28C376,724.1,406.069,700.733,409.959,668.1l7.038-59.1c12.638-106.081-64.62-202.143-172.55-214.556L79.085,375.409C45.878,371.586,15.8,394.949,11.922,427.595Z" transform="translate(-11852.488 -14804.237)" fill="#91b171"/>
    <path d="M11.922,427.595l-7.046,59.1C-7.754,592.771,69.5,688.832,177.427,701.254L342.788,720.28C376,724.1,406.069,700.733,409.959,668.1l7.038-59.1c12.638-106.081-64.62-202.143-172.55-214.556L79.085,375.409C45.878,371.586,15.8,394.949,11.922,427.595Z" transform="translate(-11325.488 -14350.237)" fill="#91b171"/>
    <path d="M11.922,427.595l-7.046,59.1C-7.754,592.771,69.5,688.832,177.427,701.254L342.788,720.28C376,724.1,406.069,700.733,409.959,668.1l7.038-59.1c12.638-106.081-64.62-202.143-172.55-214.556L79.085,375.409C45.878,371.586,15.8,394.949,11.922,427.595Z" transform="translate(-11188.979 -15362.449)" fill="#91b171"/>
    <path d="M5.145,385.15l-1.36,11.4c-2.438,20.472,12.471,39.011,33.3,41.408L69,441.634a11.643,11.643,0,0,0,12.963-10.071l1.358-11.406c2.439-20.472-12.471-39.011-33.3-41.406l-31.912-3.672A11.639,11.639,0,0,0,5.145,385.15Z" transform="translate(-12224.645 -15050.239)" fill="#accb8d"/>
    <path d="M5.145,385.15l-1.36,11.4c-2.438,20.472,12.471,39.011,33.3,41.408L69,441.634a11.643,11.643,0,0,0,12.963-10.071l1.358-11.406c2.439-20.472-12.471-39.011-33.3-41.406l-31.912-3.672A11.639,11.639,0,0,0,5.145,385.15Z" transform="translate(-11093.645 -14514.239)" fill="#accb8d"/>
    <path d="M5.145,385.15l-1.36,11.4c-2.438,20.472,12.471,39.011,33.3,41.408L69,441.634a11.643,11.643,0,0,0,12.963-10.071l1.358-11.406c2.439-20.472-12.471-39.011-33.3-41.406l-31.912-3.672A11.639,11.639,0,0,0,5.145,385.15Z" transform="translate(-10871.645 -14383.239)" fill="#accb8d"/>
    <path d="M5.145,385.15l-1.36,11.4c-2.438,20.472,12.471,39.011,33.3,41.408L69,441.634a11.643,11.643,0,0,0,12.963-10.071l1.358-11.406c2.439-20.472-12.471-39.011-33.3-41.406l-31.912-3.672A11.639,11.639,0,0,0,5.145,385.15Z" transform="translate(-12053.645 -15311.239)" fill="#accb8d"/>
    <path d="M5.145,385.15l-1.36,11.4c-2.438,20.472,12.471,39.011,33.3,41.408L69,441.634a11.643,11.643,0,0,0,12.963-10.071l1.358-11.406c2.439-20.472-12.471-39.011-33.3-41.406l-31.912-3.672A11.639,11.639,0,0,0,5.145,385.15Z" transform="translate(-12377.645 -15224.239)" fill="#accb8d"/>
  </g>
</svg>
