<svg xmlns="http://www.w3.org/2000/svg" width="1920" height="1419.785" viewBox="0 0 1920 1419.785">
  <g id="Grupo_289" data-name="Grupo 289" transform="translate(12418 15049)">
    <g id="Caminho_50" data-name="Caminho 50" transform="translate(-12418 -15049)" fill="#a1c181">
      <path d="M 1919.5 1419.28515625 L 0.5 1419.28515625 L 0.5 0.4999590814113617 L 1919.5 0.4999590814113617 L 1919.5 1419.28515625 Z" stroke="none"/>
      <path d="M 1 1 L 1 1418.78515625 L 1919 1418.78515625 L 1919 1 L 1 1 M 0 0 L 1920 0 L 1920 1419.78515625 L 0 1419.78515625 L 0 0 Z" stroke="none" fill="#707070"/>
    </g>
    <path id="Retângulo_33" data-name="Retângulo 33" d="M4.682,382.251,3.711,390.4A26.77,26.77,0,0,0,27.5,419.982L50.3,422.6a8.318,8.318,0,0,0,9.261-7.195l.97-8.149a26.768,26.768,0,0,0-23.79-29.582l-22.8-2.623A8.315,8.315,0,0,0,4.682,382.251Z" transform="translate(-12225.561 -14600.684)" fill="#accb8d"/>
    <path id="Retângulo_33-2" data-name="Retângulo 33" d="M5.145,385.15l-1.36,11.4c-2.438,20.472,12.471,39.011,33.3,41.408L69,441.634a11.643,11.643,0,0,0,12.963-10.071l1.358-11.406c2.439-20.472-12.471-39.011-33.3-41.406l-31.912-3.672A11.639,11.639,0,0,0,5.145,385.15Z" transform="translate(-10633.375 -15290.684)" fill="#accb8d"/>
    <path id="Retângulo_33-3" data-name="Retângulo 33" d="M5.145,385.15l-1.36,11.4c-2.438,20.472,12.471,39.011,33.3,41.408L69,441.634a11.643,11.643,0,0,0,12.963-10.071l1.358-11.406c2.439-20.472-12.471-39.011-33.3-41.406l-31.912-3.672A11.639,11.639,0,0,0,5.145,385.15Z" transform="translate(-10871.375 -14823.684)" fill="#accb8d"/>
    <path id="Retângulo_33-4" data-name="Retângulo 33" d="M5.145,385.15l-1.36,11.4c-2.438,20.472,12.471,39.011,33.3,41.408L69,441.634a11.643,11.643,0,0,0,12.963-10.071l1.358-11.406c2.439-20.472-12.471-39.011-33.3-41.406l-31.912-3.672A11.639,11.639,0,0,0,5.145,385.15Z" transform="translate(-11795.375 -14291.684)" fill="#accb8d"/>
    <path id="Retângulo_33-5" data-name="Retângulo 33" d="M4.682,382.251,3.711,390.4A26.77,26.77,0,0,0,27.5,419.982L50.3,422.6a8.318,8.318,0,0,0,9.261-7.195l.97-8.149a26.768,26.768,0,0,0-23.79-29.582l-22.8-2.623A8.315,8.315,0,0,0,4.682,382.251Z" transform="translate(-10635.561 -14600.684)" fill="#accb8d"/>
    <path id="Retângulo_33-6" data-name="Retângulo 33" d="M4.682,382.251,3.711,390.4A26.77,26.77,0,0,0,27.5,419.982L50.3,422.6a8.318,8.318,0,0,0,9.261-7.195l.97-8.149a26.768,26.768,0,0,0-23.79-29.582l-22.8-2.623A8.315,8.315,0,0,0,4.682,382.251Z" transform="translate(-12253.615 -14528.21)" fill="#accb8d"/>
    <path id="Retângulo_33-7" data-name="Retângulo 33" d="M5.145,385.15l-1.36,11.4c-2.438,20.472,12.471,39.011,33.3,41.408L69,441.634a11.643,11.643,0,0,0,12.963-10.071l1.358-11.406c2.439-20.472-12.471-39.011-33.3-41.406l-31.912-3.672A11.639,11.639,0,0,0,5.145,385.15Z" transform="translate(-10910.645 -14722.239)" fill="#accb8d"/>
    <path id="Retângulo_33-8" data-name="Retângulo 33" d="M5.145,385.15l-1.36,11.4c-2.438,20.472,12.471,39.011,33.3,41.408L69,441.634a11.643,11.643,0,0,0,12.963-10.071l1.358-11.406c2.439-20.472-12.471-39.011-33.3-41.406l-31.912-3.672A11.639,11.639,0,0,0,5.145,385.15Z" transform="translate(-11834.645 -14190.239)" fill="#accb8d"/>
    <path id="Retângulo_33-9" data-name="Retângulo 33" d="M4.682,382.251,3.711,390.4A26.77,26.77,0,0,0,27.5,419.982L50.3,422.6a8.318,8.318,0,0,0,9.261-7.195l.97-8.149a26.768,26.768,0,0,0-23.79-29.582l-22.8-2.623A8.315,8.315,0,0,0,4.682,382.251Z" transform="translate(-10663.615 -14528.21)" fill="#accb8d"/>
    <path id="Retângulo_33-10" data-name="Retângulo 33" d="M4.682,382.251,3.711,390.4A26.77,26.77,0,0,0,27.5,419.982L50.3,422.6a8.318,8.318,0,0,0,9.261-7.195l.97-8.149a26.768,26.768,0,0,0-23.79-29.582l-22.8-2.623A8.315,8.315,0,0,0,4.682,382.251Z" transform="translate(-12125.032 -14620.556)" fill="#accb8d"/>
    <path id="Retângulo_33-11" data-name="Retângulo 33" d="M4.682,382.251,3.711,390.4A26.77,26.77,0,0,0,27.5,419.982L50.3,422.6a8.318,8.318,0,0,0,9.261-7.195l.97-8.149a26.768,26.768,0,0,0-23.79-29.582l-22.8-2.623A8.315,8.315,0,0,0,4.682,382.251Z" transform="translate(-12326.089 -14586.656)" fill="#accb8d"/>
    <path id="Retângulo_33-12" data-name="Retângulo 33" d="M5.145,385.15l-1.36,11.4c-2.438,20.472,12.471,39.011,33.3,41.408L69,441.634a11.643,11.643,0,0,0,12.963-10.071l1.358-11.406c2.439-20.472-12.471-39.011-33.3-41.406l-31.912-3.672A11.639,11.639,0,0,0,5.145,385.15Z" transform="translate(-11012.089 -14804.049)" fill="#accb8d"/>
    <path id="Retângulo_33-13" data-name="Retângulo 33" d="M5.145,385.15l-1.36,11.4c-2.438,20.472,12.471,39.011,33.3,41.408L69,441.634a11.643,11.643,0,0,0,12.963-10.071l1.358-11.406c2.439-20.472-12.471-39.011-33.3-41.406l-31.912-3.672A11.639,11.639,0,0,0,5.145,385.15Z" transform="translate(-11936.089 -14272.049)" fill="#accb8d"/>
    <path id="Retângulo_33-14" data-name="Retângulo 33" d="M4.682,382.251,3.711,390.4A26.77,26.77,0,0,0,27.5,419.982L50.3,422.6a8.318,8.318,0,0,0,9.261-7.195l.97-8.149a26.768,26.768,0,0,0-23.79-29.582l-22.8-2.623A8.315,8.315,0,0,0,4.682,382.251Z" transform="translate(-12197.506 -14679.002)" fill="#accb8d"/>
    <path id="Retângulo_33-15" data-name="Retângulo 33" d="M4.682,382.251,3.711,390.4A26.77,26.77,0,0,0,27.5,419.982L50.3,422.6a8.318,8.318,0,0,0,9.261-7.195l.97-8.149a26.768,26.768,0,0,0-23.79-29.582l-22.8-2.623A8.315,8.315,0,0,0,4.682,382.251Z" transform="translate(-12268.838 -14744.449)" fill="#accb8d"/>
    <path id="Retângulo_33-16" data-name="Retângulo 33" d="M11.922,427.595l-7.046,59.1C-7.754,592.771,69.5,688.832,177.427,701.254L342.788,720.28C376,724.1,406.069,700.733,409.959,668.1l7.038-59.1c12.638-106.081-64.62-202.143-172.55-214.556L79.085,375.409C45.878,371.586,15.8,394.949,11.922,427.595Z" transform="translate(-11755.089 -15290.449)" fill="#91b171"/>
    <path id="Retângulo_33-17" data-name="Retângulo 33" d="M11.922,427.595l-7.046,59.1C-7.754,592.771,69.5,688.832,177.427,701.254L342.788,720.28C376,724.1,406.069,700.733,409.959,668.1l7.038-59.1c12.638-106.081-64.62-202.143-172.55-214.556L79.085,375.409C45.878,371.586,15.8,394.949,11.922,427.595Z" transform="translate(-11852.488 -14804.237)" fill="#91b171"/>
    <path id="Retângulo_33-18" data-name="Retângulo 33" d="M11.922,427.595l-7.046,59.1C-7.754,592.771,69.5,688.832,177.427,701.254L342.788,720.28C376,724.1,406.069,700.733,409.959,668.1l7.038-59.1c12.638-106.081-64.62-202.143-172.55-214.556L79.085,375.409C45.878,371.586,15.8,394.949,11.922,427.595Z" transform="translate(-11325.488 -14350.237)" fill="#91b171"/>
    <path id="Retângulo_33-19" data-name="Retângulo 33" d="M11.922,427.595l-7.046,59.1C-7.754,592.771,69.5,688.832,177.427,701.254L342.788,720.28C376,724.1,406.069,700.733,409.959,668.1l7.038-59.1c12.638-106.081-64.62-202.143-172.55-214.556L79.085,375.409C45.878,371.586,15.8,394.949,11.922,427.595Z" transform="translate(-11188.979 -15362.449)" fill="#91b171"/>
    <path id="Retângulo_33-20" data-name="Retângulo 33" d="M5.145,385.15l-1.36,11.4c-2.438,20.472,12.471,39.011,33.3,41.408L69,441.634a11.643,11.643,0,0,0,12.963-10.071l1.358-11.406c2.439-20.472-12.471-39.011-33.3-41.406l-31.912-3.672A11.639,11.639,0,0,0,5.145,385.15Z" transform="translate(-12224.645 -15050.239)" fill="#accb8d"/>
    <path id="Retângulo_33-21" data-name="Retângulo 33" d="M5.145,385.15l-1.36,11.4c-2.438,20.472,12.471,39.011,33.3,41.408L69,441.634a11.643,11.643,0,0,0,12.963-10.071l1.358-11.406c2.439-20.472-12.471-39.011-33.3-41.406l-31.912-3.672A11.639,11.639,0,0,0,5.145,385.15Z" transform="translate(-11093.645 -14514.239)" fill="#accb8d"/>
    <path id="Retângulo_33-22" data-name="Retângulo 33" d="M5.145,385.15l-1.36,11.4c-2.438,20.472,12.471,39.011,33.3,41.408L69,441.634a11.643,11.643,0,0,0,12.963-10.071l1.358-11.406c2.439-20.472-12.471-39.011-33.3-41.406l-31.912-3.672A11.639,11.639,0,0,0,5.145,385.15Z" transform="translate(-10871.645 -14383.239)" fill="#accb8d"/>
    <path id="Retângulo_33-23" data-name="Retângulo 33" d="M5.145,385.15l-1.36,11.4c-2.438,20.472,12.471,39.011,33.3,41.408L69,441.634a11.643,11.643,0,0,0,12.963-10.071l1.358-11.406c2.439-20.472-12.471-39.011-33.3-41.406l-31.912-3.672A11.639,11.639,0,0,0,5.145,385.15Z" transform="translate(-12053.645 -15311.239)" fill="#accb8d"/>
    <path id="Retângulo_33-24" data-name="Retângulo 33" d="M5.145,385.15l-1.36,11.4c-2.438,20.472,12.471,39.011,33.3,41.408L69,441.634a11.643,11.643,0,0,0,12.963-10.071l1.358-11.406c2.439-20.472-12.471-39.011-33.3-41.406l-31.912-3.672A11.639,11.639,0,0,0,5.145,385.15Z" transform="translate(-12377.645 -15224.239)" fill="#accb8d"/>
    <g id="Grupo_287" data-name="Grupo 287" transform="translate(-11336.126 -14863.458)">
      <path id="Caminho_73" data-name="Caminho 73" d="M-178.934-649.83V-587a10.134,10.134,0,0,1-10.135,10.135h-64.523a26.961,26.961,0,0,1-8.54-1.378,25.818,25.818,0,0,1-2.641-1.037,26.389,26.389,0,0,1-2.929-1.557,27.013,27.013,0,0,1-12.914-23.053V-666.72a10.134,10.134,0,0,1,10.135-10.135h64.523A27.027,27.027,0,0,1-178.934-649.83Z" transform="translate(307.076 707.319)" fill="#91b171"/>
      <g id="Grupo_113" data-name="Grupo 113" transform="translate(0 0)">
        <g id="Grupo_111" data-name="Grupo 111">
          <path id="Caminho_74" data-name="Caminho 74" d="M-285.169-691.9c7.417-7.417,6.667-13.691,7.165-16.787s-11.818-45.088-11.818-45.088-2.55-7.092-9.049-7.254a11.009,11.009,0,0,0-10.013,5.46c-.241.763-4.482,14.5-4.482,14.5l-13.559-7.042a10.5,10.5,0,0,0-10.433,2.616,10.259,10.259,0,0,0-2.433,10.465l6.923,13.269-14.239,4.444s-5.833,3.021-5.833,8.558,1,5.6,3.6,8.6,45.878,13.5,45.878,13.5S-292.587-684.484-285.169-691.9Z" transform="translate(354.967 763.06)" fill="#91b171"/>
          <path id="Caminho_75" data-name="Caminho 75" d="M-303.7-688.308h0a23.017,23.017,0,0,1-4.134-.337l-.08-.018c-.108-.026-10.972-2.666-22.013-5.638-22.888-6.161-24.209-7.686-24.919-8.5-.382-.441-.724-.81-1.054-1.167-2.108-2.279-3.039-3.508-3.039-8.758,0-6.693,6.645-10.211,6.927-10.358l.158-.082,12.094-3.775-5.856-11.224-.042-.111a12.245,12.245,0,0,1,2.894-12.62,12.2,12.2,0,0,1,8.792-3.652,12.084,12.084,0,0,1,3.747.557l.135.047,11.531,5.989c1.223-3.962,3.588-11.622,3.769-12.2.48-1.518,4.44-6.88,11.63-6.88.121,0,.244,0,.367,0,7.8.194,10.783,8.252,10.906,8.594l.038.115c.031.105,3.118,10.637,6.1,21.412,6.152,22.2,5.9,23.739,5.77,24.568-.067.413-.11.937-.161,1.544-.3,3.584-.8,9.584-7.573,16.354C-292.777-689.372-299.2-688.308-303.7-688.308Zm-3.31-4.307a19.912,19.912,0,0,0,3.309.253c3.731,0,9.037-.858,13.125-4.946,5.721-5.721,6.129-10.6,6.4-13.826.053-.635.1-1.236.188-1.783.016-2.668-6.014-24.7-11.73-44.192-.222-.575-2.351-5.749-7.176-5.869a9.212,9.212,0,0,0-8.058,4.132c-.431,1.381-4.409,14.268-4.45,14.4l-.716,2.32-15.554-8.079a8.79,8.79,0,0,0-2.3-.3,8.115,8.115,0,0,0-5.925,2.465,8.178,8.178,0,0,0-2,8.226l7.976,15.287-16.354,5.1c-.759.442-4.609,2.875-4.609,6.685,0,3.884.338,4.249,1.962,6.006.322.349.686.742,1.091,1.208C-349.467-703.675-327.248-697.527-307.009-692.615Z" transform="translate(358.939 767.034)" fill="#464646"/>
        </g>
        <g id="Grupo_112" data-name="Grupo 112" transform="translate(57.439 57.905)">
          <path id="Caminho_76" data-name="Caminho 76" d="M-114.239-551.493v22.262A10.134,10.134,0,0,1-124.373-519.1h-18.445l-31.836-27.194s-11.3-11.591-7.473-25a19.849,19.849,0,0,1,.784-2.257,22.116,22.116,0,0,1,1.192-2.463,28.158,28.158,0,0,1,4.729-6.135,27.784,27.784,0,0,1,6.392-4.861,22.278,22.278,0,0,1,2.564-1.192,20.626,20.626,0,0,1,2.283-.74c13.314-3.5,24.833,7.645,24.833,7.645Z" transform="translate(184.941 591.65)" fill="#ffb726"/>
          <path id="Caminho_77" data-name="Caminho 77" d="M-141.766-586.578l-.142-.149c-.375-.365-9.327-8.9-20.945-8.9a22.9,22.9,0,0,0-4.916.527q-1.079.238-2.135.581a22.215,22.215,0,0,0-2.239.855,28.759,28.759,0,0,0-8.679,6.108,28.972,28.972,0,0,0-5.936,8.283,23.271,23.271,0,0,0-.892,2.2q-.369,1.069-.625,2.121a24.624,24.624,0,0,0,.861,13.911,36.025,36.025,0,0,0,7.338,12.189l.064.064,30.106,25.715h6.243l-33.562-28.667a32.452,32.452,0,0,1-6.4-10.746,19.881,19.881,0,0,1-.173-13.34,20.637,20.637,0,0,1,1.1-2.537h0a23.234,23.234,0,0,1,2.149-3.375,28.662,28.662,0,0,1,2.588-2.949,28.144,28.144,0,0,1,2.851-2.51,22.685,22.685,0,0,1,3.679-2.314,20.093,20.093,0,0,1,2.618-1.095,18.734,18.734,0,0,1,5.953-.966c9.475,0,17.276,6.969,18.063,7.7l26.583,31.549v-6.29Z" transform="translate(188.909 595.625)" fill="#464646"/>
        </g>
      </g>
    </g>
    <g id="Grupo_288" data-name="Grupo 288" transform="translate(-11325.469 -14623.986)">
      <path id="Caminho_93" data-name="Caminho 93" d="M-1065.93-573.624v61.033a9.843,9.843,0,0,1-9.844,9.844h-62.674a26.187,26.187,0,0,1-8.295-1.339,25.042,25.042,0,0,1-2.566-1.007l-.066-.03a25.322,25.322,0,0,1-2.7-1.437c-.026-.013-.052-.03-.079-.046a25.6,25.6,0,0,1-2.887-2.057A26.186,26.186,0,0,1-1164.7-529v-61.033a9.821,9.821,0,0,1,.6-3.4,9.85,9.85,0,0,1,2.205-3.481,9.677,9.677,0,0,1,1.562-1.3,9.556,9.556,0,0,1,1.05-.617c.227-.112.453-.217.686-.315a9.829,9.829,0,0,1,3.737-.732h62.673a26.409,26.409,0,0,1,3.514.233q1.009.138,1.992.348c.653.138,1.3.3,1.933.492a25.764,25.764,0,0,1,4.2,1.641c.758.377,1.5.788,2.209,1.234.61.374,1.2.778,1.775,1.2a26.291,26.291,0,0,1,5.224,5.142c.41.531.8,1.083,1.169,1.647s.7,1.126,1.024,1.71a26.1,26.1,0,0,1,2.4,6.074c.164.64.306,1.293.42,1.952s.207,1.336.273,2.015Q-1065.932-574.919-1065.93-573.624Z" transform="translate(1172.117 614.995)" fill="#91b171"/>
      <g id="Grupo_142" data-name="Grupo 142" transform="translate(0 0)">
        <g id="Grupo_128" data-name="Grupo 128">
          <g id="Grupo_126" data-name="Grupo 126" transform="translate(1.971 1.97)">
            <path id="Caminho_94" data-name="Caminho 94" d="M-1153.086-563.79l-27.953-57.893a2.673,2.673,0,0,1,1.241-3.558l4.3-2.077a2.672,2.672,0,0,1,3.558,1.241l1.1,2.28a2.672,2.672,0,0,0,3.558,1.241l4.428-2.138a2.575,2.575,0,0,1,3.468,1.054,2.574,2.574,0,0,0,3.467,1.054l4.3-2.077a2.672,2.672,0,0,0,1.241-3.558l-2.932-6.072a2.672,2.672,0,0,1,1.241-3.558l3.8-1.833a2.672,2.672,0,0,1,3.558,1.241l5.617,11.634a2.672,2.672,0,0,0,3.558,1.241l4.3-2.077a2.672,2.672,0,0,0,1.241-3.558l-1.406-2.912a2.672,2.672,0,0,1,1.241-3.558l4.05-1.955a2.672,2.672,0,0,1,3.558,1.241l23.742,49.172Z" transform="translate(1181.303 639.949)" fill="#ffb726"/>
          </g>
          <g id="Grupo_127" data-name="Grupo 127">
            <path id="Caminho_95" data-name="Caminho 95" d="M-1158.894-566.967l-27.953-57.894a4.6,4.6,0,0,1-.2-3.539,4.6,4.6,0,0,1,2.357-2.648l4.3-2.077a4.639,4.639,0,0,1,6.187,2.158l1.1,2.28a.692.692,0,0,0,.4.351.694.694,0,0,0,.53-.027l4.429-2.138a4.728,4.728,0,0,1,3.437-.279,4.351,4.351,0,0,1,2.66,2.25.407.407,0,0,0,.258.194.809.809,0,0,0,.58-.058l4.3-2.077a.693.693,0,0,0,.352-.4.693.693,0,0,0-.028-.53l-2.931-6.072a4.6,4.6,0,0,1-.2-3.539,4.6,4.6,0,0,1,2.357-2.648l3.8-1.833a4.639,4.639,0,0,1,6.187,2.158l5.617,11.633a.69.69,0,0,0,.4.351.692.692,0,0,0,.53-.027l4.3-2.077a.691.691,0,0,0,.351-.4.692.692,0,0,0-.027-.531l-1.406-2.912a4.6,4.6,0,0,1-.2-3.539,4.6,4.6,0,0,1,2.357-2.648l4.05-1.955a4.6,4.6,0,0,1,3.539-.2,4.6,4.6,0,0,1,2.648,2.357l23.742,49.172-3.546,1.712-23.742-49.172a.693.693,0,0,0-.4-.351.693.693,0,0,0-.53.027l-4.05,1.955a.705.705,0,0,0-.324.929l1.406,2.912a4.6,4.6,0,0,1,.2,3.539,4.6,4.6,0,0,1-2.357,2.648l-4.3,2.077a4.638,4.638,0,0,1-6.187-2.158l-5.617-11.634a.7.7,0,0,0-.928-.324l-3.8,1.833a.693.693,0,0,0-.351.4.7.7,0,0,0,.027.531l2.932,6.072a4.6,4.6,0,0,1,.2,3.539,4.6,4.6,0,0,1-2.357,2.647l-4.3,2.077a4.728,4.728,0,0,1-3.437.279,4.351,4.351,0,0,1-2.659-2.25.409.409,0,0,0-.259-.194.81.81,0,0,0-.58.057l-4.429,2.138a4.6,4.6,0,0,1-3.539.2,4.6,4.6,0,0,1-2.648-2.357l-1.1-2.28a.7.7,0,0,0-.929-.324l-4.3,2.077a.692.692,0,0,0-.351.4.694.694,0,0,0,.027.53l27.953,57.894Z" transform="translate(1187.309 645.952)" fill="#464646"/>
          </g>
        </g>
        <g id="Grupo_130" data-name="Grupo 130" transform="translate(9.973 15.837)">
          <g id="Grupo_129" data-name="Grupo 129" transform="translate(0 0)">
            <rect id="Retângulo_175" data-name="Retângulo 175" width="3.938" height="46.71" transform="translate(0 1.712) rotate(-25.773)" fill="#464646"/>
          </g>
        </g>
        <g id="Grupo_132" data-name="Grupo 132" transform="translate(21.831 16.804)">
          <g id="Grupo_131" data-name="Grupo 131" transform="translate(0 0)">
            <rect id="Retângulo_176" data-name="Retângulo 176" width="3.938" height="44.9" transform="translate(0 1.739) rotate(-26.209)" fill="#464646"/>
          </g>
        </g>
        <g id="Grupo_134" data-name="Grupo 134" transform="translate(29.94 10.358)">
          <g id="Grupo_133" data-name="Grupo 133" transform="translate(0 0)">
            <rect id="Retângulo_177" data-name="Retângulo 177" width="3.938" height="53.062" transform="translate(0 1.735) rotate(-26.142)" fill="#464646"/>
          </g>
        </g>
        <g id="Grupo_136" data-name="Grupo 136" transform="translate(41.175 11.672)">
          <g id="Grupo_135" data-name="Grupo 135" transform="translate(0 0)">
            <rect id="Retângulo_178" data-name="Retângulo 178" width="3.938" height="43.452" transform="translate(0 1.74) rotate(-26.224)" fill="#464646"/>
          </g>
        </g>
        <g id="Grupo_138" data-name="Grupo 138" transform="translate(51.021 8.832)">
          <g id="Grupo_137" data-name="Grupo 137" transform="translate(0 0)">
            <rect id="Retângulo_179" data-name="Retângulo 179" width="3.938" height="35.867" transform="matrix(0.898, -0.439, 0.439, 0.898, 0, 1.729)" fill="#464646"/>
          </g>
        </g>
        <g id="Grupo_141" data-name="Grupo 141" transform="translate(13.125 31.667)">
          <g id="Grupo_139" data-name="Grupo 139" transform="translate(1.966 1.967)">
            <path id="Caminho_96" data-name="Caminho 96" d="M-1050.222-490.419v15.737a9.843,9.843,0,0,1-9.844,9.844h-52.809l-28.032-42.565a2.273,2.273,0,0,1,.935-3.383l4.745-2.29,1.775-.856,1.772-.856,5.555-2.684,3.544-1.71,4.985-2.408a3,3,0,0,1,1.069-.282,3.387,3.387,0,0,1,2.917,1.263,8.792,8.792,0,0,0,1.168,1.217,9.238,9.238,0,0,0,9.306,1.939,12.34,12.34,0,0,0,1.434-.587,11.589,11.589,0,0,0,2.048-1.25,8.93,8.93,0,0,0,3.448-5.755,10.228,10.228,0,0,0-.1-3.915,3.391,3.391,0,0,1,.975-3.222,2.956,2.956,0,0,1,.738-.512l4.644-2.241,3.547-1.713,5.152-2.487,1.772-.856,1.772-.856,4.86-2.346a2.392,2.392,0,0,1,3.334,1.339Z" transform="translate(1141.319 543.45)" fill="#706aff"/>
          </g>
          <g id="Grupo_140" data-name="Grupo 140">
            <path id="Caminho_97" data-name="Caminho 97" d="M-1085.279-543.164l-5.152,2.487-3.547,1.713-4.643,2.241a2.955,2.955,0,0,0-.738.512,3.391,3.391,0,0,0-.975,3.222,10.23,10.23,0,0,1,.1,3.915,8.929,8.929,0,0,1-3.449,5.755,11.569,11.569,0,0,1-2.048,1.25,12.348,12.348,0,0,1-1.434.587,9.237,9.237,0,0,1-9.306-1.939l-1.883.929a11.613,11.613,0,0,0,8.1,3.5,12.34,12.34,0,0,0,5.378-1.306,11.3,11.3,0,0,0,6.711-9.355,11.2,11.2,0,0,0-.269-3.846,1.21,1.21,0,0,1,.059-.709,1.3,1.3,0,0,1,.607-.745l13.342-6.441Zm13.582-3.413a4.348,4.348,0,0,0-4.089-2.868,4.441,4.441,0,0,0-1.946.449l-4.859,2.346-1.772.856-1.772.856-5.158,2.491-3.548,1.713-4.636,2.238a4.888,4.888,0,0,0-.774.469,5.415,5.415,0,0,0-2.136,4.574,4.673,4.673,0,0,0,.151.968,7.48,7.48,0,0,1-2.336,7.347,9.286,9.286,0,0,1-2.012,1.293,9.518,9.518,0,0,1-1.457.574,7.65,7.65,0,0,1-2.208.341,7.829,7.829,0,0,1-5.8-2.881c-.056-.076-.115-.148-.174-.22a5.379,5.379,0,0,0-4.069-1.851,5.115,5.115,0,0,0-1.165.135,4.913,4.913,0,0,0-1.017.354l-4.984,2.409-3.544,1.71-5.555,2.684-1.772.853-1.775.86-4.745,2.29a4.315,4.315,0,0,0-2.307,2.72,4.32,4.32,0,0,0,.584,3.518l27.317,41.483h4.715l-28.744-43.648a.38.38,0,0,1-.076-.305.408.408,0,0,1,.22-.223l4.748-2.29,1.772-.856,1.776-.856,14.083-6.8a1.1,1.1,0,0,1,.469-.1,1.518,1.518,0,0,1,.83.249,1,1,0,0,1,.253.23,8.767,8.767,0,0,0,.863.971,11.613,11.613,0,0,0,8.1,3.5,12.34,12.34,0,0,0,5.378-1.306,11.3,11.3,0,0,0,6.711-9.355,11.2,11.2,0,0,0-.269-3.846,1.21,1.21,0,0,1,.059-.709,1.3,1.3,0,0,1,.607-.745l13.342-6.441,1.772-.856,1.772-.853,4.859-2.346a.431.431,0,0,1,.633.253l21.138,56.357v-11.212Z" transform="translate(1147.31 549.445)" fill="#464646"/>
          </g>
        </g>
      </g>
    </g>
  </g>
</svg>
