<?xml version="1.0" encoding="utf-8"?>
<!-- Generator: Adobe Illustrator 17.0.0, SVG Export Plug-In . SVG Version: 6.00 Build 0)  -->
<!DOCTYPE svg PUBLIC "-//W3C//DTD SVG 1.1//EN" "http://www.w3.org/Graphics/SVG/1.1/DTD/svg11.dtd">
<svg version="1.1" id="Layer_1" xmlns="http://www.w3.org/2000/svg" xmlns:xlink="http://www.w3.org/1999/xlink" x="0px" y="0px"
	 width="1195.971px" height="1193.898px" viewBox="132.047 -15.069 1195.971 1193.898"
	 enable-background="new 132.047 -15.069 1195.971 1193.898" xml:space="preserve">
<g id="Grupo_314" transform="translate(473.812 -5234.402)">
	<path id="Retângulo_280" fill="#91B171" d="M388.153,5258.981l429.524,444.356c49.899,51.622,48.502,133.921-3.12,183.82
		l-506.449,489.543c-51.622,49.899-133.921,48.502-183.82-3.12l-429.524-444.356c-49.899-51.622-48.502-133.921,3.12-183.82
		l506.449-489.543C255.955,5205.962,338.254,5207.359,388.153,5258.981z"/>
	<g id="Grupo_307" transform="translate(18.822 5449.828)">
		<path id="Caminho_195" fill="#7EA633" d="M568.344,534.857l-56.063,39.98l-56.066-39.98c-19.726-14.085-31.423-36.838-31.4-61.076
			V349.933c0-48.304,39.158-87.462,87.462-87.463c48.304,0.002,87.461,39.159,87.463,87.463v123.848
			C599.76,498.017,588.065,520.769,568.344,534.857z"/>
		<path id="Caminho_196" fill="#769C30" d="M452.372,605.915l-40.048-56.067l39.98-56.062c14.087-19.723,36.839-31.42,61.076-31.4
			h123.85c48.303,0.002,87.46,39.16,87.462,87.463c0,48.304-39.158,87.462-87.462,87.463H513.378
			C489.164,637.316,466.441,625.621,452.372,605.915z"/>
		<path id="Caminho_197" fill="#6A8C2B" d="M558.601,590.993l-28.648-28.65h52.125l46.319,46.318l17.667-17.668l-28.65-28.65h57.3
			v-24.991h-57.3l28.65-28.649l-17.663-17.666l-46.319,46.318h-52.125l28.648-28.649l-17.667-17.669l-46.318,46.318H349.857v24.991
			h144.762l46.318,46.318L558.601,590.993z"/>
		<path id="Caminho_198" fill="#F79F19" d="M137.44,462.385h99.958c27.602,0.001,49.977,22.376,49.979,49.978
			c0.001,27.602-22.374,49.979-49.976,49.98c-0.001,0-0.002,0-0.003,0H137.44c-27.599,0.002-49.975-22.37-49.977-49.969
			c0-0.004,0-0.007,0-0.011c-0.001-27.601,22.373-49.977,49.974-49.978C137.438,462.385,137.439,462.385,137.44,462.385z"/>
		<path id="Caminho_199" fill="#F38B21" d="M124.946,499.868h24.99v24.989h-24.99V499.868z"/>
		<path id="Caminho_200" fill="#F7B62D" d="M262.389,462.385h99.957c27.602,0.001,49.977,22.376,49.978,49.978
			c0.002,27.602-22.373,49.978-49.974,49.98c-0.001,0-0.003,0-0.004,0h-99.957c-27.6,0.003-49.977-22.37-49.98-49.97
			c0-0.003,0-0.007,0-0.01c0-27.602,22.376-49.978,49.978-49.978C262.388,462.385,262.388,462.385,262.389,462.385z"/>
		<path id="Caminho_201" fill="#F79F19" d="M262.389,462.385h24.989v24.989h-24.989V462.385z"/>
		<path id="Caminho_202" fill="#F79F19" d="M324.861,499.868h24.989v24.989h-24.989V499.868z"/>
		<path id="Caminho_203" fill="#F79F19" d="M512.287,512.362c0.001,34.502-27.968,62.473-62.47,62.474c-0.001,0-0.002,0-0.003,0
			c-34.5,0.003-62.471-27.962-62.474-62.462c0-0.004,0-0.008,0-0.012c0-34.502,27.97-62.472,62.472-62.472c0.001,0,0.001,0,0.002,0
			C484.316,449.892,512.285,477.86,512.287,512.362z"/>
		<path id="Caminho_204" fill="#995022" d="M12.494,537.352h724.692v99.959H12.494V537.352z"/>
		<path id="Caminho_205" fill="#995022" d="M12.494,387.416h724.692v99.957H12.494V387.416z"/>
		<g id="Grupo_274" transform="translate(12.494 424.9)">
			<path id="Caminho_206" fill="#793E1A" d="M662.218,149.937h24.989v24.989h-24.989V149.937z"/>
			<path id="Caminho_207" fill="#793E1A" d="M37.483,149.937h24.99v24.989h-24.99V149.937z"/>
			<path id="Caminho_208" fill="#793E1A" d="M37.483,0h24.99v24.99h-24.99V0z"/>
			<path id="Caminho_209" fill="#793E1A" d="M662.218,0h24.989v24.99h-24.989V0z"/>
			<path id="Caminho_210" fill="#793E1A" d="M0,62.474h99.958v49.978H0V62.474z"/>
			<path id="Caminho_211" fill="#793E1A" d="M624.735,62.474h99.958v49.978h-99.958V62.474z"/>
		</g>
		<path id="Caminho_212" fill="#F79F19" d="M112.451,187.502H87.462v-24.989c-0.001-27.602,22.374-49.978,49.975-49.979
			c0,0,0.001,0,0.002,0h24.991v24.989c0,27.602-22.375,49.978-49.977,49.979C112.452,187.502,112.451,187.502,112.451,187.502z"/>
		<path id="Caminho_213" fill="#F79F19" d="M112.451,262.47H87.462v-24.99c-0.001-27.601,22.373-49.977,49.974-49.978
			c0.001,0,0.002,0,0.003,0h24.991v24.989c0,27.602-22.375,49.978-49.977,49.979C112.452,262.47,112.451,262.47,112.451,262.47z"/>
		<path id="Caminho_214" fill="#F79F19" d="M112.451,337.437H87.462v-24.989c-0.001-27.601,22.373-49.977,49.974-49.978
			c0.001,0,0.002,0,0.003,0h24.991v24.989c0,27.602-22.375,49.977-49.976,49.978C112.453,337.437,112.452,337.437,112.451,337.437z"
			/>
		<path id="Caminho_215" fill="#F7B62D" d="M74.968,112.533h24.99v274.883h-24.99V112.533z"/>
		<path id="Caminho_216" fill="#F7B62D" d="M12.494,112.533h24.989c27.602,0.002,49.978,22.377,49.98,49.979v24.989h-24.99
			c-27.6,0.003-49.976-22.369-49.979-49.969c0-0.003,0-0.007,0-0.01V112.533z"/>
		<path id="Caminho_217" fill="#F7B62D" d="M12.494,187.501h24.989c27.602,0.001,49.978,22.376,49.98,49.978v24.99h-24.99
			c-27.6,0.003-49.976-22.369-49.979-49.969c0-0.003,0-0.007,0-0.01V187.501z"/>
		<path id="Caminho_218" fill="#F7B62D" d="M12.494,262.47h24.989c27.602,0.001,49.978,22.376,49.98,49.978v24.989h-24.99
			c-27.599,0.004-49.975-22.366-49.979-49.965c0-0.004,0-0.009,0-0.013V262.47z"/>
		<path id="Caminho_219" fill="#F7B62D" d="M87.463,137.522c-16.711-11.14-26.748-29.895-26.747-49.978
			c0.002-20.083,10.039-38.837,26.747-49.979c16.704,11.146,26.737,29.898,26.74,49.979
			C114.203,107.625,104.169,126.379,87.463,137.522z"/>
		<path id="Caminho_220" fill="#769C30" d="M518.365,284.963l-56.061,39.98l-56.068-39.98c-19.726-14.085-31.423-36.838-31.4-61.076
			V100.039c0-48.304,39.159-87.462,87.463-87.463c48.303,0.003,87.46,39.16,87.463,87.463v123.85
			C549.781,248.125,538.086,270.875,518.365,284.963z"/>
		<path id="Caminho_221" fill="#6A8C2B" d="M503.448,178.671l-28.65,28.65v-52.13l46.318-46.318l-17.668-17.67l-28.65,28.65v-57.3
			h-24.989v57.3l-28.651-28.65l-17.668,17.67l46.319,46.318v52.126l-28.651-28.65l-17.668,17.668l46.319,46.32v144.762h24.989
			V242.654l46.318-46.32L503.448,178.671z"/>
		<path id="Caminho_222" fill="#F79F19" d="M187.421,287.459h99.958c27.602,0.001,49.978,22.376,49.978,49.978
			c0.001,27.602-22.374,49.978-49.975,49.979c-0.001,0-0.002,0-0.003,0h-99.958c-27.6,0.003-49.977-22.37-49.98-49.97
			c0-0.003,0-0.006,0-0.009c0-27.602,22.375-49.977,49.976-49.978C187.418,287.459,187.419,287.459,187.421,287.459z"/>
		<path id="Caminho_223" fill="#F38B21" d="M174.926,324.942h24.989v24.99h-24.989V324.942z"/>
		<path id="Caminho_224" fill="#F7B62D" d="M312.366,287.459h99.957c27.602,0.001,49.977,22.376,49.979,49.978
			c0,27.602-22.375,49.978-49.977,49.979c-0.001,0-0.001,0-0.002,0h-99.957c-27.599,0.003-49.975-22.369-49.978-49.968
			c0-0.004,0-0.007,0-0.011c-0.002-27.6,22.372-49.976,49.972-49.978C312.362,287.459,312.364,287.459,312.366,287.459z"/>
		<path id="Caminho_225" fill="#F79F19" d="M312.367,287.459h24.988v24.989h-24.988V287.459z"/>
		<path id="Caminho_226" fill="#F79F19" d="M374.84,324.942h24.99v24.99h-24.99V324.942z"/>
		<path id="Caminho_227" fill="#F7B62D" d="M249.893,187.501h99.958c27.602,0.001,49.977,22.376,49.978,49.978
			c0.001,27.602-22.374,49.978-49.975,49.979c-0.001,0-0.002,0-0.003,0h-99.958c-27.6,0.003-49.976-22.369-49.979-49.969
			c0-0.003,0-0.007,0-0.01c0-27.602,22.375-49.977,49.976-49.978C249.891,187.501,249.892,187.501,249.893,187.501z"/>
		<path id="Caminho_228" fill="#F79F19" d="M249.894,187.501h24.99v24.989h-24.99V187.501z"/>
		<path id="Caminho_229" fill="#F79F19" d="M312.367,224.985h24.988v24.991h-24.988V224.985z"/>
		<path id="Caminho_230" fill="#7EA633" d="M655.806,284.963l-56.062,39.98l-56.067-39.98c-19.726-14.085-31.424-36.838-31.4-61.076
			V100.039c0.001-48.304,39.159-87.462,87.463-87.463c48.303,0.002,87.461,39.159,87.463,87.463v123.85
			C687.223,248.125,675.527,270.876,655.806,284.963z"/>
		<path id="Caminho_231" fill="#6E912D" d="M640.889,178.671l-28.65,28.65v-52.13l46.318-46.318l-17.668-17.67l-28.65,28.65v-57.3
			h-24.988v57.3l-28.65-28.65l-17.669,17.67l46.319,46.318v52.126l-28.65-28.65l-17.669,17.668l46.319,46.32v144.762h24.989V242.654
			l46.318-46.32L640.889,178.671z"/>
		<path id="Caminho_232" fill="#F7B62D" d="M737.188,324.942c0,34.503-27.969,62.473-62.472,62.474c-0.001,0-0.001,0-0.002,0
			c-34.501,0.002-62.472-27.965-62.474-62.466c0-0.003,0-0.005,0-0.008c0-34.503,27.971-62.473,62.474-62.472l0,0
			C709.216,262.471,737.185,290.44,737.188,324.942z"/>
		<path id="Caminho_233" fill="#DC4943" d="M637.229,324.942c0,34.503-27.969,62.473-62.472,62.474c-0.001,0-0.001,0-0.002,0
			c-34.501,0.003-62.471-27.963-62.474-62.464c0-0.003,0-0.007,0-0.01c0-34.503,27.971-62.473,62.474-62.472l0,0
			C609.257,262.471,637.226,290.44,637.229,324.942z"/>
		<path id="Caminho_234" fill="#B53630" d="M549.767,299.953h24.988v24.989h-24.988V299.953z"/>
		<path id="Caminho_235" fill="#DC4943" d="M338.229,737.268h-3.746c-6.38,0-12.673-1.484-18.382-4.333l-16.309-8.163l-17.491,8.749
			c-4.951,2.471-10.409,3.753-15.942,3.747h-5c-14.577,0.007-27.688-8.865-33.1-22.4c-10.587-26.469-16.029-54.714-16.032-83.222
			v-0.116c0.003-11.739,4.676-22.995,12.988-31.285c8.31-8.291,19.577-12.936,31.316-12.91c11.716-0.007,22.955,4.646,31.237,12.933
			l12.043,12.055l12.1-12.079c8.272-8.256,19.477-12.898,31.164-12.91h0.061c24.407,0.008,44.19,19.793,44.195,44.2
			c-0.006,28.582-5.472,56.899-16.105,83.43C365.812,728.438,352.75,737.267,338.229,737.268z"/>
		<path id="Caminho_236" fill="#793E1A" d="M312.368,612.32h-24.99v-17.491c0.025-23.973-11.962-46.364-31.926-59.636l13.856-20.792
			c26.943,17.911,43.113,48.136,43.06,80.489V612.32z"/>
		<path id="Caminho_237" fill="#769C30" d="M362.266,524.857h12.495c0.003,34.5-27.962,62.471-62.462,62.474
			c-0.004,0-0.008,0-0.012,0h-12.498C299.791,552.827,327.762,524.857,362.266,524.857z"/>
		<path id="Caminho_238" fill="#F8882F" d="M212.329,674.794c0.003,34.501-27.963,62.471-62.464,62.474c-0.002,0-0.005,0-0.008,0
			c-34.503,0-62.473-27.969-62.474-62.472c0-0.001,0-0.001,0-0.002c0.001-34.503,27.971-62.473,62.474-62.474
			c34.502,0,62.472,27.97,62.472,62.472C212.329,674.793,212.329,674.793,212.329,674.794z"/>
		<path id="Caminho_239" fill="#464646" d="M12.495,649.805h49.98v-24.991H24.99v-74.967h212.409v-24.991H124.945v-24.992h499.787
			v24.989H412.325v24.991h312.367v74.967H424.819v24.991h312.369c6.899-0.003,12.491-5.595,12.494-12.494V387.416
			c-0.003-6.899-5.595-12.492-12.494-12.495h-6.749c17.384-19.28,23.522-46.197,16.215-71.107
			c-7.308-24.911-27.018-44.246-52.064-51.076c3.317-9.261,5.045-19.015,5.111-28.852V100.039
			c0.093-39.976-23.679-76.151-60.41-91.929c-36.729-15.784-79.333-8.126-108.266,19.462C502.072,0.045,459.5-7.577,422.796,8.196
			c-36.708,15.766-60.486,51.893-60.449,91.843v76.218c-4.113-0.833-8.299-1.251-12.495-1.249h-99.957
			c-34.486,0.04-62.433,27.986-62.474,62.472c0.045,13.563,4.549,26.734,12.818,37.485h-12.814c-4.201,0.047-8.386,0.516-12.494,1.4
			v-13.9c-0.003-6.902-5.598-12.495-12.5-12.495h-0.329c8.27-10.75,12.776-23.922,12.824-37.485v-24.989
			c-0.003-6.901-5.599-12.494-12.5-12.494h-0.329c8.27-10.75,12.776-23.922,12.824-37.485V62.55H149.93v37.483h-12.494
			c-4.088,0.016-8.165,0.435-12.171,1.251c5.851-28.697-6.381-58.063-30.875-74.12c-4.198-2.801-9.669-2.801-13.867,0
			c-24.491,16.06-36.723,45.423-30.877,74.12c-4.004-0.816-8.079-1.235-12.166-1.251H24.985V62.55h-24.99v74.967
			c0.045,13.563,4.549,26.734,12.818,37.485h-0.324c-6.899,0.003-12.492,5.595-12.495,12.494v24.989
			c0.045,13.563,4.549,26.734,12.818,37.485h-0.324c-6.9,0.003-12.492,5.595-12.495,12.495v24.989
			c0.036,34.489,27.986,62.438,62.475,62.474h12.494v24.989H12.488c-6.9,0.003-12.492,5.595-12.495,12.495v249.894
			C-0.007,644.209,5.59,649.805,12.495,649.805C12.494,649.805,12.494,649.805,12.495,649.805z M99.958,524.857H24.99v-24.993
			h74.968V524.857z M649.724,524.857v-24.993h74.968v24.989L649.724,524.857z M724.692,324.942
			c0.002,27.602-22.373,49.978-49.974,49.98c-0.001,0-0.003,0-0.004,0c-12.793-0.026-25.075-5.026-34.25-13.941
			c12.341-22.439,12.341-49.632,0-72.071c9.174-8.918,21.456-13.919,34.25-13.946C702.315,274.965,724.691,297.34,724.692,324.942z
			 M274.883,337.437c0-20.701,16.781-37.483,37.482-37.484c0.001,0,0.001,0,0.002,0v24.989h24.988v-24.989h74.97
			c20.702,0,37.484,16.782,37.485,37.484c0.002,20.701-16.778,37.483-37.479,37.485c-0.002,0-0.004,0-0.006,0h-99.958
			c-20.699,0.003-37.481-16.775-37.484-37.474C274.883,337.444,274.883,337.441,274.883,337.437L274.883,337.437z M474.799,242.654
			l24.988-24.99v6.248c-0.047,17.173,4.995,33.974,14.49,48.283c-1.048,0.859-2.062,1.768-3.173,2.555l-36.305,25.917V242.654z
			 M499.787,182.328l-24.988,24.989v-52.126l24.988-24.991V182.328z M474.799,331.379l26.073-18.631
			c-3.904,22.418,2.802,45.38,18.158,62.174h-44.231V331.379z M524.776,324.942c0-27.602,22.375-49.977,49.976-49.978
			c0.001,0,0.002,0,0.003,0c27.602,0.001,49.978,22.376,49.978,49.978c0.002,27.602-22.373,49.978-49.974,49.98
			c-0.001,0-0.003,0-0.004,0c-27.6,0.003-49.976-22.369-49.979-49.969C524.776,324.949,524.776,324.946,524.776,324.942
			L524.776,324.942z M599.746,25.07c41.385,0.046,74.922,33.583,74.968,74.968v123.849c-0.03,9.14-2.065,18.161-5.961,26.429
			c-16.359,1.241-31.843,7.881-44.019,18.877c-3.846-3.44-8.032-6.479-12.494-9.072V242.63l46.317-46.318l-17.667-17.668
			l-28.651,28.674v-52.126l46.317-46.318l-17.667-17.669l-28.651,28.65v-57.3h-24.989v57.3l-28.651-28.65l-17.667,17.669
			l46.318,46.318v52.126l-28.651-28.651l-17.667,17.668l46.318,46.32v8.449c-17.39-3.087-35.309,0.216-50.455,9.3
			c-7.785-10.587-11.995-23.379-12.02-36.52V100.039C524.817,58.651,558.358,25.111,599.746,25.07z M387.335,100.038
			c0-30.296,18.236-57.614,46.216-69.233c27.981-11.618,60.204-5.253,81.666,16.131c-9.044,14.327-14.261,30.735-15.155,47.654
			l-25.263,25.264v-57.3H449.81v57.3l-28.65-28.65l-17.668,17.669l46.318,46.318v52.126l-28.65-28.651l-17.668,17.668l46.318,46.32
			v45.134c-10.296-7.852-22.797-12.276-35.741-12.648l-0.572-0.415c-3.21-2.305-6.192-4.911-8.907-7.783
			c15.001-26.951,7.607-60.853-17.254-79.111L387.335,100.038z M212.409,237.479c-0.001-20.701,16.779-37.483,37.48-37.484
			c0.002,0,0.003,0,0.005,0v24.989h24.988v-24.989h74.969c20.701,0.001,37.482,16.783,37.483,37.484
			c0.002,20.701-16.778,37.483-37.479,37.485c-0.001,0-0.003,0-0.004,0h-99.957c-20.699,0.003-37.482-16.774-37.485-37.473
			c0-0.004,0-0.007,0-0.011V237.479z M249.894,299.953h12.818c-17.09,22.068-17.09,52.901,0,74.969h-75.287
			c-20.7,0.003-37.482-16.775-37.485-37.475c0-0.003,0-0.007,0-0.01h-0.389c11.337-8.425,19.475-20.452,23.079-34.11
			c4.651-2.124,9.688-3.272,14.8-3.374L249.894,299.953z M87.462,199.995h0.324c-0.109,0.141-0.226,0.25-0.324,0.391
			c-0.1-0.141-0.213-0.25-0.329-0.391H87.462z M99.962,249.975v-12.5c-0.001-20.701,16.779-37.483,37.48-37.484
			c0.001,0,0.002,0,0.003,0h12.494v12.495c0.001,20.701-16.78,37.484-37.481,37.485c0,0-0.001,0-0.001,0L99.962,249.975z
			 M24.994,199.995h12.495c20.701,0.001,37.483,16.783,37.484,37.484v12.5H62.479c-20.699,0.003-37.482-16.774-37.485-37.473
			c0-0.004,0-0.008,0-0.012V199.995z M87.467,274.964h0.324c-0.109,0.141-0.226,0.25-0.324,0.39c-0.1-0.141-0.213-0.25-0.329-0.39
			H87.467z M99.967,312.447c0-20.701,16.78-37.482,37.481-37.483c0.001,0,0.001,0,0.002,0h12.494v12.494
			c0.001,20.7-16.779,37.482-37.479,37.483c-0.001,0-0.002,0-0.003,0h-12.5L99.967,312.447z M149.945,125.026v12.495
			c0.002,20.701-16.778,37.483-37.479,37.485c-0.001,0-0.002,0-0.003,0h-12.5v-12.495c-0.002-20.701,16.778-37.483,37.479-37.485
			c0.001,0,0.003,0,0.004,0H149.945z M87.472,53.536c9.12,8.966,14.255,21.219,14.253,34.008c0,12.791-5.138,25.046-14.259,34.013
			c-9.121-8.967-14.258-21.222-14.258-34.013c-0.001-12.788,5.135-25.041,14.255-34.006L87.472,53.536z M74.977,162.511v12.495
			H62.483c-20.698,0.004-37.481-16.772-37.485-37.471c0-0.005,0-0.009,0-0.014v-12.495h12.495
			c20.699,0.006,37.476,16.788,37.476,37.487L74.977,162.511z M24.998,287.457v-12.493h12.495
			c20.701,0.001,37.482,16.782,37.484,37.483v12.494H62.483c-20.698,0.008-37.485-16.764-37.493-37.463c0-0.006,0-0.013,0-0.019
			L24.998,287.457z M99.966,349.931h12.5c4.575-0.031,9.133-0.563,13.592-1.587c1.744,9.663,5.761,18.772,11.72,26.576H99.971
			L99.966,349.931z M24.998,399.909h699.7v74.969h-699.7V399.909z"/>
		<path id="Caminho_240" fill="#464646" d="M674.712,574.837h24.989v24.989h-24.989V574.837z"/>
		<path id="Caminho_241" fill="#464646" d="M49.978,574.837h24.99v24.989h-24.99V574.837z"/>
		<path id="Caminho_242" fill="#464646" d="M49.978,424.9h24.99v24.99h-24.99V424.9z"/>
		<path id="Caminho_243" fill="#464646" d="M674.712,424.9h24.989v24.99h-24.989V424.9z"/>
		<path id="Caminho_244" fill="#464646" d="M174.926,324.942h24.989v24.99h-24.989V324.942z"/>
		<path id="Caminho_245" fill="#464646" d="M374.84,324.942h24.99v24.99h-24.99V324.942z"/>
		<path id="Caminho_246" fill="#464646" d="M312.367,224.985h24.988v24.991h-24.988V224.985z"/>
		<path id="Caminho_247" fill="#464646" d="M549.767,299.953h24.988v24.989h-24.988V299.953z"/>
		<path id="Caminho_248" fill="#464646" d="M149.936,749.763c26.558-0.037,51.113-14.125,64.548-37.034
			c0.823,2.253,1.448,4.552,2.349,6.773c7.249,18.296,24.948,30.298,44.628,30.261h5c7.473-0.006,14.843-1.746,21.53-5.083
			l11.884-5.936l10.721,5.362c7.425,3.699,15.604,5.635,23.9,5.656h3.746c19.649,0.061,37.336-11.903,44.591-30.164
			c11.256-27.993,17.027-57.889,17-88.06c-0.041-23.197-14.215-44.026-35.777-52.579c14.819-14.094,23.21-33.649,23.215-54.1
			c0.001-6.899-5.591-12.493-12.49-12.494c-0.001,0-0.003,0-0.004,0h-12.428c-25.467,0.02-49.178,12.978-62.95,34.4
			c-7.399-12.947-17.698-24.003-30.089-32.3l-13.916,20.792c16.558,11.054,27.752,28.517,30.882,48.179
			c-8.911-5.595-19.214-8.575-29.736-8.6c-26.905,0.038-50.089,18.955-55.524,45.306c-24.545-23.044-61.442-26.9-90.22-9.427
			c-28.781,17.47-42.385,51.985-33.263,84.394C86.657,727.518,116.267,749.869,149.936,749.763z M360.693,537.352
			c-5.569,21.486-24.617,36.742-46.8,37.485c5.57-21.485,24.616-36.741,46.799-37.485H360.693z M256.538,599.826
			c8.392-0.017,16.443,3.317,22.367,9.261l12.072,12.068c4.873,4.878,12.777,4.882,17.655,0.009
			c0.003-0.003,0.006-0.006,0.009-0.009l12.085-12.068c5.926-5.961,13.995-9.296,22.4-9.261
			c17.508,0.017,31.696,14.205,31.713,31.713c0.014,26.971-5.149,53.694-15.208,78.719c-3.475,8.774-11.963,14.531-21.4,14.514
			h-3.745c-4.438,0.002-8.815-1.031-12.783-3.019l-16.319-8.163c-3.523-1.745-7.66-1.745-11.183,0l-17.491,8.749
			c-3.209,1.622-6.751,2.477-10.347,2.5h-5c-9.474,0.022-17.998-5.751-21.494-14.556c-9.981-25.049-15.061-51.78-14.965-78.744
			c0.011-17.479,14.155-31.657,31.633-31.713H256.538z M149.938,624.815c27.602,0.002,49.977,22.378,49.979,49.98
			c0,27.602-22.375,49.977-49.976,49.978c-0.001,0-0.002,0-0.003,0c-27.599,0.003-49.975-22.369-49.978-49.968
			c0-0.003,0-0.007,0-0.01c-0.003-27.602,22.37-49.981,49.972-49.984c0.001,0,0.003,0,0.004,0L149.938,624.815z"/>
	</g>
</g>
</svg>
