<svg xmlns="http://www.w3.org/2000/svg" width="1920" height="1419.785" viewBox="0 0 1920 1419.785">
  <g id="Grupo_315" data-name="Grupo 315" transform="translate(10123 6311)">
    <g id="Caminho_50" data-name="Caminho 50" transform="translate(-10123 -6311)" fill="#eff2c9">
      <path d="M 1919.5 1419.28515625 L 0.5 1419.28515625 L 0.5 0.4999590814113617 L 1919.5 0.4999590814113617 L 1919.5 1419.28515625 Z" stroke="none"/>
      <path d="M 1 1 L 1 1418.78515625 L 1919 1418.78515625 L 1919 1 L 1 1 M 0 0 L 1920 0 L 1920 1419.78515625 L 0 1419.78515625 L 0 0 Z" stroke="none" fill="#707070"/>
    </g>
    <path d="M4.682,382.251,3.711,390.4A26.77,26.77,0,0,0,27.5,419.982L50.3,422.6a8.318,8.318,0,0,0,9.261-7.195l.97-8.149a26.768,26.768,0,0,0-23.79-29.582l-22.8-2.623A8.315,8.315,0,0,0,4.682,382.251Z" transform="translate(-9930.561 -5862.684)" fill="#f3f3f3"/>
    <path d="M5.145,385.15l-1.36,11.4c-2.438,20.472,12.471,39.011,33.3,41.408L69,441.634a11.643,11.643,0,0,0,12.963-10.071l1.358-11.406c2.439-20.472-12.471-39.011-33.3-41.406l-31.912-3.672A11.639,11.639,0,0,0,5.145,385.15Z" transform="translate(-8338.375 -6552.684)" fill="#f3f3f3"/>
    <path d="M5.145,385.15l-1.36,11.4c-2.438,20.472,12.471,39.011,33.3,41.408L69,441.634a11.643,11.643,0,0,0,12.963-10.071l1.358-11.406c2.439-20.472-12.471-39.011-33.3-41.406l-31.912-3.672A11.639,11.639,0,0,0,5.145,385.15Z" transform="translate(-8576.375 -6085.684)" fill="#f3f3f3"/>
    <path d="M5.145,385.15l-1.36,11.4c-2.438,20.472,12.471,39.011,33.3,41.408L69,441.634a11.643,11.643,0,0,0,12.963-10.071l1.358-11.406c2.439-20.472-12.471-39.011-33.3-41.406l-31.912-3.672A11.639,11.639,0,0,0,5.145,385.15Z" transform="translate(-9500.375 -5553.684)" fill="#f3f3f3"/>
    <path d="M4.682,382.251,3.711,390.4A26.77,26.77,0,0,0,27.5,419.982L50.3,422.6a8.318,8.318,0,0,0,9.261-7.195l.97-8.149a26.768,26.768,0,0,0-23.79-29.582l-22.8-2.623A8.315,8.315,0,0,0,4.682,382.251Z" transform="translate(-8340.561 -5862.684)" fill="#f3f3f3"/>
    <path d="M4.682,382.251,3.711,390.4A26.77,26.77,0,0,0,27.5,419.982L50.3,422.6a8.318,8.318,0,0,0,9.261-7.195l.97-8.149a26.768,26.768,0,0,0-23.79-29.582l-22.8-2.623A8.315,8.315,0,0,0,4.682,382.251Z" transform="translate(-9958.615 -5790.21)" fill="#f3f3f3"/>
    <path d="M5.145,385.15l-1.36,11.4c-2.438,20.472,12.471,39.011,33.3,41.408L69,441.634a11.643,11.643,0,0,0,12.963-10.071l1.358-11.406c2.439-20.472-12.471-39.011-33.3-41.406l-31.912-3.672A11.639,11.639,0,0,0,5.145,385.15Z" transform="translate(-8615.645 -5984.239)" fill="#f3f3f3"/>
    <path d="M5.145,385.15l-1.36,11.4c-2.438,20.472,12.471,39.011,33.3,41.408L69,441.634a11.643,11.643,0,0,0,12.963-10.071l1.358-11.406c2.439-20.472-12.471-39.011-33.3-41.406l-31.912-3.672A11.639,11.639,0,0,0,5.145,385.15Z" transform="translate(-9539.645 -5452.239)" fill="#f3f3f3"/>
    <path d="M4.682,382.251,3.711,390.4A26.77,26.77,0,0,0,27.5,419.982L50.3,422.6a8.318,8.318,0,0,0,9.261-7.195l.97-8.149a26.768,26.768,0,0,0-23.79-29.582l-22.8-2.623A8.315,8.315,0,0,0,4.682,382.251Z" transform="translate(-8368.615 -5790.21)" fill="#f3f3f3"/>
    <path d="M4.682,382.251,3.711,390.4A26.77,26.77,0,0,0,27.5,419.982L50.3,422.6a8.318,8.318,0,0,0,9.261-7.195l.97-8.149a26.768,26.768,0,0,0-23.79-29.582l-22.8-2.623A8.315,8.315,0,0,0,4.682,382.251Z" transform="translate(-9830.032 -5882.556)" fill="#f3f3f3"/>
    <path d="M4.682,382.251,3.711,390.4A26.77,26.77,0,0,0,27.5,419.982L50.3,422.6a8.318,8.318,0,0,0,9.261-7.195l.97-8.149a26.768,26.768,0,0,0-23.79-29.582l-22.8-2.623A8.315,8.315,0,0,0,4.682,382.251Z" transform="translate(-10031.089 -5848.656)" fill="#f3f3f3"/>
    <path d="M5.145,385.15l-1.36,11.4c-2.438,20.472,12.471,39.011,33.3,41.408L69,441.634a11.643,11.643,0,0,0,12.963-10.071l1.358-11.406c2.439-20.472-12.471-39.011-33.3-41.406l-31.912-3.672A11.639,11.639,0,0,0,5.145,385.15Z" transform="translate(-8717.089 -6066.049)" fill="#f3f3f3"/>
    <path d="M5.145,385.15l-1.36,11.4c-2.438,20.472,12.471,39.011,33.3,41.408L69,441.634a11.643,11.643,0,0,0,12.963-10.071l1.358-11.406c2.439-20.472-12.471-39.011-33.3-41.406l-31.912-3.672A11.639,11.639,0,0,0,5.145,385.15Z" transform="translate(-9641.089 -5534.049)" fill="#f3f3f3"/>
    <path d="M4.682,382.251,3.711,390.4A26.77,26.77,0,0,0,27.5,419.982L50.3,422.6a8.318,8.318,0,0,0,9.261-7.195l.97-8.149a26.768,26.768,0,0,0-23.79-29.582l-22.8-2.623A8.315,8.315,0,0,0,4.682,382.251Z" transform="translate(-9902.506 -5941.002)" fill="#f3f3f3"/>
    <path d="M4.682,382.251,3.711,390.4A26.77,26.77,0,0,0,27.5,419.982L50.3,422.6a8.318,8.318,0,0,0,9.261-7.195l.97-8.149a26.768,26.768,0,0,0-23.79-29.582l-22.8-2.623A8.315,8.315,0,0,0,4.682,382.251Z" transform="translate(-9973.838 -6006.449)" fill="#f3f3f3"/>
    <path d="M11.922,427.595l-7.046,59.1C-7.754,592.771,69.5,688.832,177.427,701.254L342.788,720.28C376,724.1,406.069,700.733,409.959,668.1l7.038-59.1c12.638-106.081-64.62-202.143-172.55-214.556L79.085,375.409C45.878,371.586,15.8,394.949,11.922,427.595Z" transform="translate(-9460.089 -6552.449)" fill="#f3f3f3"/>
    <path d="M11.922,427.595l-7.046,59.1C-7.754,592.771,69.5,688.832,177.427,701.254L342.788,720.28C376,724.1,406.069,700.733,409.959,668.1l7.038-59.1c12.638-106.081-64.62-202.143-172.55-214.556L79.085,375.409C45.878,371.586,15.8,394.949,11.922,427.595Z" transform="translate(-9557.488 -6066.237)" fill="#f3f3f3"/>
    <path d="M11.922,427.595l-7.046,59.1C-7.754,592.771,69.5,688.832,177.427,701.254L342.788,720.28C376,724.1,406.069,700.733,409.959,668.1l7.038-59.1c12.638-106.081-64.62-202.143-172.55-214.556L79.085,375.409C45.878,371.586,15.8,394.949,11.922,427.595Z" transform="translate(-9030.488 -5612.237)" fill="#f3f3f3"/>
    <path d="M11.922,427.595l-7.046,59.1C-7.754,592.771,69.5,688.832,177.427,701.254L342.788,720.28C376,724.1,406.069,700.733,409.959,668.1l7.038-59.1c12.638-106.081-64.62-202.143-172.55-214.556L79.085,375.409C45.878,371.586,15.8,394.949,11.922,427.595Z" transform="translate(-8893.979 -6624.449)" fill="#f3f3f3"/>
    <path d="M5.145,385.15l-1.36,11.4c-2.438,20.472,12.471,39.011,33.3,41.408L69,441.634a11.643,11.643,0,0,0,12.963-10.071l1.358-11.406c2.439-20.472-12.471-39.011-33.3-41.406l-31.912-3.672A11.639,11.639,0,0,0,5.145,385.15Z" transform="translate(-9929.645 -6312.239)" fill="#f3f3f3"/>
    <path d="M5.145,385.15l-1.36,11.4c-2.438,20.472,12.471,39.011,33.3,41.408L69,441.634a11.643,11.643,0,0,0,12.963-10.071l1.358-11.406c2.439-20.472-12.471-39.011-33.3-41.406l-31.912-3.672A11.639,11.639,0,0,0,5.145,385.15Z" transform="translate(-8798.645 -5776.239)" fill="#f3f3f3"/>
    <path d="M5.145,385.15l-1.36,11.4c-2.438,20.472,12.471,39.011,33.3,41.408L69,441.634a11.643,11.643,0,0,0,12.963-10.071l1.358-11.406c2.439-20.472-12.471-39.011-33.3-41.406l-31.912-3.672A11.639,11.639,0,0,0,5.145,385.15Z" transform="translate(-8576.645 -5645.239)" fill="#f3f3f3"/>
    <path d="M5.145,385.15l-1.36,11.4c-2.438,20.472,12.471,39.011,33.3,41.408L69,441.634a11.643,11.643,0,0,0,12.963-10.071l1.358-11.406c2.439-20.472-12.471-39.011-33.3-41.406l-31.912-3.672A11.639,11.639,0,0,0,5.145,385.15Z" transform="translate(-9758.645 -6573.239)" fill="#f3f3f3"/>
    <path d="M5.145,385.15l-1.36,11.4c-2.438,20.472,12.471,39.011,33.3,41.408L69,441.634a11.643,11.643,0,0,0,12.963-10.071l1.358-11.406c2.439-20.472-12.471-39.011-33.3-41.406l-31.912-3.672A11.639,11.639,0,0,0,5.145,385.15Z" transform="translate(-10082.645 -6486.239)" fill="#f3f3f3"/>
  </g>
</svg>
